inDegrees=yes
DataType=double
version=3
OpenSimVersion=4.5-2023-11-26-efcdfd3eb
endheader
time	pelvis_tilt	pelvis_list	pelvis_rotation	pelvis_tx	pelvis_ty	pelvis_tz	hip_flexion_l	hip_adduction_l	hip_rotation_l	hip_flexion_r	hip_adduction_r	hip_rotation_r	lumbar_ext	lumbar_bend	lumbar_rota	knee_angle_l_beta	knee_angle_r_beta	knee_angle_l	knee_angle_r	ankle_angle_l	ankle_angle_r
1.2965	-3.184974740161384	4.19408018588486	2.261207670479814	0.3574598000221273	0.8533184027146139	-0.2461091163196445	-1.91366189030972	10.59098448932355	5.74010107559935	35.4230277551043	-5.493889118081169	-5.071967941574644	-8.84119507630667	-2.586334400623867	-2.492268994646528	0.03966546241314639	0.8405421286323499	-2.27266358870809	-48.159516473576	7.944804245105897	-0.5097107151498615
1.307	-3.338451665443268	4.346432684653088	2.245354257614047	0.3678165829843172	0.8525005770255317	-0.2460681693841599	-2.859044967439184	10.7199001891783	5.802697906681881	36.00477185368477	-5.591931203627332	-5.231840786216028	-8.743979009490728	-2.759246287853645	-2.666408177112755	0.03402812121296096	0.7842687090511219	-1.949667730262251	-44.93528703280279	8.470272689368739	-0.713930320768154
1.3175	-3.482057589946521	4.507312961572702	2.234066812221092	0.3782538826670986	0.8514771669810887	-0.2459964946429475	-3.768979283115756	10.83503639238796	5.774224496122375	36.49749756586782	-5.720222476745369	-5.439307683863287	-8.648842749662373	-2.943134822409007	-2.821884989034681	0.03115441500328216	0.7268246397544876	-1.785016492887119	-41.64398430404862	8.985441213485792	-0.9471986435074934
1.328	-3.613667302106156	4.671592479691357	2.222974939087609	0.3887797646886705	0.850265017945432	-0.2459246557100747	-4.646538600185224	10.95066647236849	5.711642319428699	36.90316583619702	-5.86226751652996	-5.688817022626302	-8.558137877431747	-3.122850161747838	-2.953618286828467	0.03010896030363576	0.6690865766160555	-1.725116350925263	-38.33583696895658	9.464111531476306	-1.202285927368899
1.3385	-3.732763736380134	4.834446751028019	2.20013338346538	0.3994040143162476	0.8488805166104076	-0.2458711190054425	-5.497629956728975	11.08240889475693	5.671848230383336	37.2280664525702	-5.99813458952521	-5.975007138892868	-8.471705982747741	-3.284823232181395	-3.049119523717656	0.02971907166305025	0.6119879098820361	-1.70277737733962	-35.06432434927324	9.922099537154892	-1.472233807749754
1.349	-3.840609900563899	4.989556219868969	2.165957182603825	0.4101471735577001	0.8473448713489833	-0.2457983425675868	-6.329389006000308	11.20899131952101	5.642508404418006	37.48758067175909	-6.119153568594253	-6.295885964711099	-8.385502361195915	-3.429891140367879	-3.105641416761209	0.0293711268890654	0.5564900748720738	-1.682841610286655	-31.88453263108902	10.36239189356177	-1.74583744645222
1.3595	-3.938012049947655	5.130143074130725	2.129456940859808	0.4210399046918732	0.8456853195517263	-0.2456707085631683	-7.145432564650871	11.30277333829405	5.594583093489867	37.69440948603486	-6.222442173117468	-6.648566425576377	-8.293732299733534	-3.560047137300087	-3.128631807990809	0.02896223250169437	0.5035587026644588	-1.659413687623707	-28.85178839975661	10.74247529816178	-2.010857237157589
1.37	-4.02523107312506	5.2500136221553	2.106832241359626	0.4321403865695291	0.8439382211734328	-0.2454990159060522	-7.926488852395879	11.35217658911489	5.490434044967687	37.85030637496558	-6.312613043536513	-7.025702054733372	-8.183169492355729	-3.669674670332053	-3.1315740350232	0.03005027940355154	0.4541804269278056	-1.721754183012408	-26.02262160041315	11.05876808139042	-2.261676262863363
1.3805	-4.100597838939767	5.343068784494995	2.108095071311636	0.4435002855596679	0.8421450072108756	-0.2452976894485344	-8.652334589894116	11.35253562905127	5.314315993612833	37.9539817150504	-6.388978025625934	-7.412824116233219	-8.044070482129587	-3.750554860464887	-3.124237173508347	0.03417783581342588	0.4092973970454991	-1.958245745000378	-23.45101341639743	11.31556800913174	-2.489458465256148
1.391	-4.155526023180312	5.402427920911056	2.11372633433022	0.4551181266182937	0.8403550480829153	-0.2450539975734414	-9.321046637154739	11.3141777228381	5.145907598750862	38.00160937594521	-6.423451935286818	-7.795565092756031	-7.887567610030315	-3.79027337599372	-3.095952279702764	0.04121627501761078	0.3696181157436664	-2.36151860575959	-21.17755806369005	11.49751959092405	-2.680414707834079
1.4015	-4.183667299987698	5.422159373451411	2.104322896777417	0.4669910185820347	0.8386126423451702	-0.2447474513035658	-9.933602630528121	11.24598151626814	5.055519478197369	37.99104545148331	-6.390393879181163	-8.169303976440615	-7.72276317503645	-3.779469435192427	-3.036283773854489	0.05076504360693893	0.3357388669820167	-2.908622745475182	-19.2364200965737	11.59907940684415	-2.828114447995381
1.412	-4.19354006834874	5.400609070924547	2.100413776583395	0.4791632561754816	0.8369408580115634	-0.2443625538729562	-10.4853078873451	11.12576657106685	4.977829002510622	37.92758813349091	-6.303056197193446	-8.526592996713877	-7.531823638308405	-3.725342803158819	-2.966049338224662	0.06305522586615986	0.3080842073466543	-3.612798318375101	-17.65192481559664	11.59854991993989	-2.943256372321433
1.4225	-4.193742969629176	5.337244105506769	2.128024635368335	0.4916688514341932	0.8353606017165165	-0.2438996499467614	-10.96899122110184	10.92986656530519	4.835692206305736	37.81505966209264	-6.182265647894163	-8.855204898417792	-7.299611907948698	-3.634600517962279	-2.909480287092177	0.0784353628577818	0.2868765226059408	-4.494015256328073	-16.43681398670976	11.47723550744848	-3.030384639727963
1.433	-4.177566772765375	5.235489336346778	2.180752695177893	0.504455106146238	0.8339033565416401	-0.2434017678584459	-11.37812749757567	10.67509051907668	4.659748654139012	37.64817603752766	-6.036919507998163	-9.146228454972238	-7.048821291063441	-3.499515151543789	-2.859163181125046	0.09685694446978975	0.2717870827367133	-5.549494134651932	-15.57225276698659	11.22985838044553	-3.065063875831668
1.4435	-4.137042054419291	5.098878998174294	2.244240085703758	0.5174702264686589	0.8325955766884089	-0.2428919707503922	-11.71008683472435	10.38269904851204	4.499248852125753	37.42213067562179	-5.865110949794021	-9.395188693749342	-6.803367174828701	-3.314345478429858	-2.803302211385143	0.1182155025952483	0.2624460847846394	-6.773249371725558	-15.03705300789241	10.84733945819908	-3.040637929750298
1.454	-4.074026505349074	4.924788501463429	2.315407809206177	0.5307523445041152	0.8314390403964346	-0.2422841678379402	-11.97482366900005	10.04058439389057	4.359524747045993	37.13820799185535	-5.639074586955974	-9.617827136240656	-6.555206475282075	-3.092660694607873	-2.754939578345518	0.1426110100080202	0.2587911837845343	-8.171008985557503	-14.82764260604824	10.301278977644	-3.024496189432708
1.4645	-3.990135306662195	4.713649996361945	2.401715348348558	0.5443239401350481	0.8304316914138271	-0.2415300409242269	-12.18270405480117	9.637762046641072	4.232739746649443	36.79990165867798	-5.350608683576608	-9.829364930574462	-6.301161226628281	-2.846937636969112	-2.730933771782313	0.1702253276882583	0.2604831844231252	-9.753192842768634	-14.92458710157294	9.584104676276723	-3.051531972799601
1.475	-3.878200966915169	4.48326251150933	2.522806064048285	0.5580503714503073	0.8295682733579166	-0.2408109047439132	-12.33605988757532	9.198518920967137	4.105800259134747	36.4237575045025	-5.082377994085834	-10.00679824792915	-6.086441241684249	-2.566139695288649	-2.718500347861681	0.2010248319961472	0.2659724054473255	-11.51787445070567	-15.2390962990741	8.697310277471942	-2.979194224755957
1.4855	-3.730934153237017	4.249257029477798	2.682944315775163	0.5718362096821372	0.8288449676520223	-0.2402570127554484	-12.43110900093428	8.748444919834466	3.958225305705926	36.01147280697793	-4.892116076196761	-10.13692815618251	-5.945220389246013	-2.243393443978602	-2.696090235969746	0.2348829832552239	0.2740496475326838	-13.45780361996631	-15.70188818067058	7.655461933528048	-2.740242957253131
1.496	-3.544287336374957	4.002715250515973	2.857265876548197	0.5859151127510412	0.8282883418817716	-0.2396345366132576	-12.45387326685782	8.28481913026164	3.790963544345306	35.46796001191252	-4.673555887240138	-10.29053456826547	-5.82606400048357	-1.910742318135001	-2.684470031272326	0.2716326784028731	0.2856235234319544	-15.56340605031902	-16.36502242230696	6.405950054158144	-2.691511392191147
1.5065	-3.322706668092972	3.728416321477413	3.02325863309641	0.6004559711205925	0.8279540626766149	-0.2387162243993443	-12.37600716892011	7.796774821550165	3.624345898962185	34.73609183244954	-4.31882135516644	-10.47566838950666	-5.676875727635482	-1.5927910176303	-2.704975296376663	0.3113185263176982	0.3007445876533747	-17.83723764223655	-17.23139558394062	4.916207533072965	-2.815634618495586
1.517	-3.067524468192331	3.443630629090935	3.174746365898035	0.6151114963533025	0.8279683862817109	-0.2376457309352753	-12.18704054448121	7.298754441460859	3.460959198166597	33.94385878901518	-3.925489744485643	-10.60282340427348	-5.559847850253095	-1.282080433656825	-2.718617852019378	0.3539587356481543	0.3166460816750263	-20.28034167442604	-18.14248407933376	3.34860084529194	-2.519015100421743
1.5275	-2.775445374347907	3.179954489805577	3.302060823693198	0.6295502390769843	0.8284348846741973	-0.2365814057637627	-11.89379245032726	6.816575533851737	3.277651283430351	33.21566377794485	-3.623437233062868	-10.667538470259	-5.541944334825998	-0.9847025959505094	-2.681498866434544	0.399291636740716	0.3322730215899501	-22.87772558011383	-19.03784178316342	1.722719704278106	-2.146675687386773
1.538	-2.469850418885312	2.937488435055763	3.379171050917256	0.643928421805941	0.8293090564959903	-0.2353455595850887	-11.48069836846609	6.351240276634408	3.075812791520336	32.51825663093121	-3.337402302285053	-10.69451741248509	-5.553446999991794	-0.7345146497120568	-2.600164943037312	0.4470050588460509	0.3485990113579824	-25.61150329287572	-19.97325209324544	-0.1566993809361012	-2.161334946817267
1.5485	-2.168679902271974	2.706645668866522	3.405991187952695	0.6584645850408033	0.8305092946299866	-0.2337827508185542	-10.93546380639924	5.895683304756139	2.885881884529826	31.7471453162987	-2.962449288547314	-10.69312799931117	-5.519873556947959	-0.5540648239790853	-2.511182536746133	0.4967731397504838	0.3646296856572581	-28.46300428316535	-20.89174207334278	-2.298960128418616	-1.945154324802774
